<svg version="1.1" preserveAspectRatio="none" xmlns="http://www.w3.org/2000/svg" width="500" height="500" viewBox="0 0 500 500"><rect width="100%" height="100%" fill="#FFFFFF" fill-opacity="1"/><svg viewBox="31.4108 170.0003 452.7764 120" width="333" height="88.255483280489" x="83.5px" y="205.8723px" xmlns="http://www.w3.org/2000/svg" xmlns:xlink="http://www.w3.org/1999/xlink" preserveAspectRatio="none"><defs></defs><style>.companyName {fill:#182145;fill-opacity:1;}.icon1 {fill:#182145;fill-opacity:1;}.icon2 {fill:#E35B34;fill-opacity:1;}.icon3 {fill:#E3D454;fill-opacity:1;}.icon3-str {stroke:#E3D454;stroke-opacity:1;}</style><g opacity="1" transform="rotate(0 31.4108 170.0003)">
<svg width="157.3771" height="120" x="31.4108" y="170.0003" version="1.1" preserveAspectRatio="none" viewBox="20 39 160 122">
  <g transform="matrix(1 0 0 1 0 0)"><g><path d="M179.911 127.086v11.085h-20.61v-11.085h20.61z" data-color="1" class="icon1"></path><path d="M179.911 106.586v11.085h-20.61v-11.085h20.61z" data-color="1" class="icon1"></path><path d="M41.727 83.486v11.085H20V83.486h21.727z" data-color="1" class="icon1"></path><path d="M41.727 62.987v11.085H20V62.987h21.727z" data-color="1" class="icon1"></path><path d="M101.048 74.073V62.987h58.253V39H41.727v67.586h59.577v11.085H41.727v9.415h59.577v11.085H41.727V161h117.574V94.571h-58.253V83.486h58.253v-9.413h-58.253z" data-color="2" class="icon2"></path><path d="M180 83.486v11.085h-78.952V83.486H180z" data-color="1" class="icon1"></path><path d="M180 62.987v11.085h-78.952V62.987H180z" data-color="1" class="icon1"></path><path d="M101.304 127.086v11.085H20v-11.085h81.304z" data-color="1" class="icon1"></path><path d="M101.304 106.586v11.085H20v-11.085h81.304z" data-color="1" class="icon1"></path></g></g>
</svg>
</g><g opacity="1" transform="rotate(0 218.7879 170.0003)">
<svg width="265.3993" height="120" x="218.7879" y="170.0003" version="1.1" preserveAspectRatio="none" viewBox="3.32 -28 151.44 68.48">
  <g transform="matrix(1 0 0 1 0 0)" class="companyName"><path id="id-D6z1nYkh9" d="M22.52-28L29-28L29 0L22.52 0L22.52-11.48L9.80-11.48L9.80 0L3.32 0L3.32-28L9.80-28L9.80-16.96L22.52-16.96L22.52-28Z M56.56 0L54.08-6L41.08-6L38.60 0L31.96 0L44.44-28L50.84-28L63.36 0L56.56 0ZM43.16-10.92L52.04-10.92L47.60-21.64L43.16-10.92Z M85.56-28L91.96-28L91.96 0L86.64 0L72.68-17L72.68 0L66.28 0L66.28-28L71.64-28L85.56-11L85.56-28Z M98.60 0L98.60-28L111.32-28Q115.88-28 119.38-26.26Q122.88-24.52 124.82-21.36Q126.76-18.20 126.76-14L126.76-14Q126.76-9.80 124.82-6.64Q122.88-3.48 119.38-1.74Q115.88 0 111.32 0L111.32 0L98.60 0ZM105.08-5.32L111-5.32Q115.20-5.32 117.70-7.66Q120.20-10 120.20-14L120.20-14Q120.20-18 117.70-20.34Q115.20-22.68 111-22.68L111-22.68L105.08-22.68L105.08-5.32Z M154.76-28L143.88-9.92L143.88 0L137.40 0L137.40-10L126.56-28L133.44-28L140.92-15.56L148.40-28L154.76-28Z M18.48 40.48Q14.20 40.48 10.74 38.62Q7.28 36.76 5.30 33.46Q3.32 30.16 3.32 26L3.32 26Q3.32 21.84 5.30 18.54Q7.28 15.24 10.74 13.38Q14.20 11.52 18.52 11.52L18.52 11.52Q22.16 11.52 25.10 12.80Q28.04 14.08 30.04 16.48L30.04 16.48L25.88 20.32Q23.04 17.04 18.84 17.04L18.84 17.04Q16.24 17.04 14.20 18.18Q12.16 19.32 11.02 21.36Q9.88 23.40 9.88 26L9.88 26Q9.88 28.60 11.02 30.64Q12.16 32.68 14.20 33.82Q16.24 34.96 18.84 34.96L18.84 34.96Q23.04 34.96 25.88 31.64L25.88 31.64L30.04 35.48Q28.04 37.92 25.08 39.20Q22.12 40.48 18.48 40.48L18.48 40.48Z M59.20 40L52.24 40L46.84 32.20L46.52 32.20L40.88 32.20L40.88 40L34.40 40L34.40 12L46.52 12Q50.24 12 52.98 13.24Q55.72 14.48 57.20 16.76Q58.68 19.04 58.68 22.16L58.68 22.16Q58.68 25.28 57.18 27.54Q55.68 29.80 52.92 31L52.92 31L59.20 40ZM52.12 22.16Q52.12 19.80 50.60 18.54Q49.08 17.28 46.16 17.28L46.16 17.28L40.88 17.28L40.88 27.04L46.16 27.04Q49.08 27.04 50.60 25.76Q52.12 24.48 52.12 22.16L52.12 22.16Z M70.24 34.80L85.48 34.80L85.48 40L63.80 40L63.80 12L84.96 12L84.96 17.20L70.24 17.20L70.24 23.28L83.24 23.28L83.24 28.32L70.24 28.32L70.24 34.80Z M126.36 12L132.56 12L123.40 40L116.44 40L110.28 21.04L103.92 40L97 40L87.80 12L94.52 12L100.84 31.68L107.44 12L113.44 12L119.84 31.84L126.36 12Z"/></g>
</svg>
</g></svg></svg>